<svg version="1.2" baseProfile="tiny-ps" xmlns="http://www.w3.org/2000/svg" viewBox="0 0 1598 504" width="1598" height="504">
	<title>airbnb-svg</title>
	<style>
		tspan { white-space:pre }
		.shp0 { fill: #ff385c } 
	</style>
	<path id="Layer" fill-rule="evenodd" class="shp0" d="M460.24 357.34C461.94 361.69 463.32 366.16 464.36 370.71C465.39 375.26 466.09 379.89 466.43 384.54C466.78 389.2 466.78 393.88 466.42 398.53C466.07 403.19 465.37 407.81 464.32 412.36C462.52 425.01 458.46 437.24 452.33 448.45C446.21 459.67 438.12 469.69 428.46 478.04C418.79 486.4 407.71 492.95 395.73 497.38C383.75 501.81 371.08 504.05 358.31 504C352.78 503.85 347.26 503.36 341.79 502.52C336.32 501.67 330.91 500.49 325.6 498.97C320.28 497.44 315.06 495.59 309.97 493.41C304.89 491.23 299.94 488.73 295.17 485.92C275.22 474.29 255.12 457.63 233.13 433.58C211.14 457.63 191.51 474.29 171.09 485.77C167.28 488.03 163.35 490.1 159.33 491.97C155.31 493.83 151.19 495.5 147 496.95C142.81 498.4 138.54 499.64 134.23 500.66C129.91 501.68 125.55 502.48 121.15 503.06C102.75 505.44 84.04 502.97 66.87 495.91C49.71 488.85 34.68 477.44 23.27 462.79C11.85 448.15 4.45 430.78 1.78 412.4C-0.88 394.02 1.28 375.26 8.07 357.97C10.58 351.37 13.09 345.4 15.61 339.9C19.53 330.78 23.62 322.29 27.07 314.12L28.01 313.17C62.57 237.72 100.1 161.02 138.58 85.57L140.15 82.42C144.24 75.04 148.16 67.02 152.09 58.84C157.12 49.89 162.61 40.3 170 31.18C177.8 21.64 187.63 13.96 198.77 8.68C209.9 3.4 222.07 0.66 234.39 0.66C246.71 0.66 258.88 3.4 270.01 8.68C281.15 13.96 290.98 21.64 298.78 31.18C306.79 40.3 311.66 49.89 316.69 58.84C320.77 66.39 324.7 74.56 328.62 81.95L330.2 85.1C369.3 160.55 406.21 237.25 440.76 312.7L441.24 313.17L452.86 339.42C455.37 344.93 457.73 351.37 460.24 357.5L460.24 357.34ZM434.8 406.86C436.37 394.28 434.8 381.71 431.81 367.56C430.24 362.37 427.73 357.5 425.22 351.37C421.29 343.51 417.83 334.39 413.75 326.22L413.28 325.75C378.73 250.77 341.66 174.22 303.34 99.24L301.77 96.1C297.68 88.71 293.76 80.54 289.83 72.99C285.75 64.98 281.19 57.27 275.7 50.99C270.8 45.14 264.69 40.44 257.78 37.21C250.87 33.98 243.35 32.31 235.72 32.31C228.1 32.31 220.57 33.98 213.67 37.21C206.76 40.44 200.65 45.14 195.75 50.99C190.1 57.27 185.7 64.98 181.62 72.99C177.53 80.54 173.61 88.55 169.68 96.1L168.11 99.24C129.63 174.22 92.57 250.77 58.64 325.75L58.01 326.85C54.09 335.34 50 343.83 46.55 352C44.03 357.97 41.68 363 40.11 368.03C35.08 382.18 33.98 394.75 35.55 407.33C36.89 417 40.1 426.32 45.01 434.75C49.92 443.19 56.44 450.58 64.18 456.52C71.93 462.45 80.77 466.81 90.19 469.34C99.61 471.88 109.43 472.55 119.11 471.3C131.67 469.73 144.08 465.8 157.12 458.26C162.51 455.01 167.76 451.53 172.86 447.84C177.96 444.15 182.91 440.24 187.68 436.14C192.46 432.03 197.06 427.72 201.47 423.23C205.88 418.74 210.11 414.06 214.13 409.22C181.62 368.5 161.2 330.78 153.66 297.61C149.58 282.52 149.11 267.9 151.15 254.7C151.57 251.6 152.18 248.53 152.96 245.49C153.74 242.46 154.69 239.48 155.81 236.56C156.94 233.64 158.23 230.78 159.68 228.01C161.13 225.24 162.74 222.55 164.5 219.96C180.2 197.8 206.12 184.28 235.17 184.28C242.04 184.15 248.9 184.86 255.6 186.4C262.29 187.93 268.78 190.28 274.9 193.4C281.03 196.51 286.75 200.36 291.94 204.86C297.13 209.37 301.75 214.49 305.69 220.12C307.42 222.71 309.01 225.4 310.45 228.17C311.89 230.93 313.18 233.77 314.31 236.68C315.45 239.58 316.43 242.55 317.24 245.56C318.06 248.57 318.71 251.62 319.2 254.7C320.77 267.75 320.3 281.89 316.69 297.61C309.15 330.78 289.2 368.03 256.22 408.9C260.31 413.66 264.59 418.26 269.03 422.69C273.48 427.12 278.09 431.38 282.86 435.46C287.63 439.53 292.55 443.43 297.62 447.12C302.69 450.82 307.9 454.33 313.23 457.63C326.11 465.17 338.68 469.26 351.24 470.83C364.12 472.25 377.31 470.83 389.25 465.8C395.26 463.32 400.92 460.06 406.09 456.11C411.26 452.17 415.9 447.56 419.88 442.41C423.86 437.26 427.15 431.61 429.66 425.61C432.18 419.61 433.91 413.31 434.8 406.86ZM285.12 290.07C287.63 278.91 288.26 268.38 286.69 259.26C285.75 251.24 282.76 244.33 278.68 238.04C276.22 234.54 273.34 231.36 270.1 228.57C266.86 225.78 263.29 223.4 259.47 221.48C255.64 219.57 251.6 218.14 247.42 217.22C243.25 216.3 238.98 215.9 234.7 216.03C216.64 216.03 200.15 224.52 190.73 238.2C186.64 244.17 183.66 251.24 182.56 259.26C182.2 261.82 181.97 264.4 181.85 266.98C181.74 269.57 181.75 272.15 181.88 274.74C182.01 277.32 182.27 279.9 182.64 282.46C183.02 285.02 183.51 287.56 184.13 290.07C190.1 317.26 207.69 349.01 234.7 383.59C261.56 348.86 279.15 316.79 285.12 290.07ZM635.86 378.42C630.09 377.19 624.48 375.32 619.13 372.83C613.77 370.35 608.71 367.28 604.05 363.67C599.38 360.05 595.13 355.93 591.38 351.37C587.21 346.55 583.48 341.35 580.27 335.84C577.05 330.33 574.35 324.53 572.21 318.52C570.06 312.51 568.48 306.32 567.48 300.02C566.48 293.71 566.07 287.33 566.25 280.95C566.19 274.43 566.71 267.91 567.81 261.48C568.9 255.05 570.57 248.73 572.79 242.6C575.01 236.46 577.78 230.54 581.05 224.9C584.33 219.26 588.1 213.93 592.33 208.96C596.26 204.34 600.69 200.17 605.54 196.51C610.38 192.86 615.61 189.74 621.12 187.22C626.64 184.71 632.42 182.8 638.35 181.54C644.29 180.28 650.34 179.67 656.41 179.72C662.11 179.57 667.81 180.13 673.36 181.41C678.92 182.69 684.3 184.66 689.36 187.29C694.42 189.92 699.13 193.18 703.38 197C707.62 200.81 711.36 205.15 714.52 209.9L716.09 185.22L761.95 185.22L761.95 375.11L715.93 375.11L714.36 347.44C711.11 352.52 707.22 357.16 702.8 361.26C698.38 365.35 693.45 368.87 688.14 371.72C682.83 374.57 677.17 376.73 671.32 378.15C665.46 379.57 659.45 380.24 653.42 380.14C647.52 380.22 641.63 379.65 635.86 378.42ZM665.36 334.87C674.47 334.87 682.48 332.35 690.02 327.79C696.93 322.76 702.58 316.16 706.98 308.14C710.91 300.13 712.95 290.54 712.95 279.85C713.25 275.23 712.96 270.59 712.07 266.04C711.19 261.49 709.72 257.08 707.71 252.91C705.69 248.74 703.15 244.84 700.14 241.33C697.12 237.81 693.67 234.7 689.86 232.07C686.2 229.78 682.24 228.03 678.1 226.84C673.96 225.65 669.67 225.05 665.36 225.05C661.05 225.05 656.76 225.65 652.62 226.84C648.47 228.03 644.52 229.78 640.86 232.07C633.95 237.1 628.29 243.7 623.9 251.71C622.86 253.92 621.96 256.17 621.18 258.48C620.41 260.79 619.77 263.13 619.27 265.51C618.77 267.89 618.4 270.3 618.18 272.72C617.95 275.14 617.87 277.58 617.93 280.01C617.62 284.63 617.92 289.27 618.8 293.82C619.68 298.37 621.15 302.78 623.17 306.95C625.18 311.12 627.73 315.01 630.74 318.53C633.75 322.05 637.21 325.16 641.01 327.79C648.4 332.35 656.41 334.87 665.36 334.87ZM840.48 133.98C840.48 139.48 839.54 144.51 837.02 148.6C834.51 152.53 831.06 156.14 826.5 158.66C821.95 161.17 817.08 162.12 812.05 162.12C807.03 162.12 802 161.17 797.45 158.66C796.37 158.06 795.34 157.4 794.35 156.67C793.37 155.94 792.43 155.15 791.54 154.3C790.65 153.46 789.82 152.55 789.05 151.6C788.28 150.64 787.57 149.64 786.92 148.6C786.32 147.49 785.79 146.33 785.34 145.15C784.88 143.97 784.51 142.75 784.22 141.52C783.93 140.29 783.72 139.04 783.59 137.78C783.47 136.51 783.42 135.25 783.47 133.98C783.47 128.32 784.57 123.29 786.92 119.36C789.44 114.65 793.05 111.82 797.45 109.3C802 106.79 806.87 105.69 812.05 105.69C814.54 105.63 817.03 105.89 819.45 106.47C821.87 107.06 824.21 107.95 826.4 109.13C828.59 110.31 830.62 111.76 832.44 113.47C834.26 115.17 835.86 117.1 837.18 119.21C837.75 120.35 838.25 121.52 838.68 122.72C839.1 123.92 839.45 125.15 839.73 126.39C840.01 127.64 840.21 128.89 840.34 130.16C840.46 131.43 840.51 132.71 840.48 133.98ZM787.08 374.48L787.08 184.91L837.02 184.91L837.02 374.79L786.92 374.79L787.08 374.48ZM970.52 235.21C968.17 234.11 965.03 233.64 962.67 233.17C959.53 232.54 957.02 232.54 954.03 232.54C940.05 232.54 929.53 236.62 922.62 245.11C915.08 253.76 911.63 265.86 911.63 281.42L911.63 374.63L861.53 374.63L861.53 184.75L907.54 184.75L909.11 213.52C914.14 203.46 920.11 195.91 928.59 190.25C930.68 188.89 932.88 187.69 935.16 186.66C937.43 185.63 939.79 184.78 942.19 184.12C944.6 183.45 947.06 182.97 949.54 182.68C952.02 182.4 954.52 182.3 957.02 182.39C960.63 182.39 964.08 182.71 967.07 183.34C968.64 183.81 969.58 183.81 970.52 184.28L970.52 235.21ZM990.63 106.94L1040.57 106.94L1040.57 209.12C1047.64 200 1055.65 192.93 1065.7 187.42C1073.6 183.55 1082.1 181.02 1090.83 179.95C1099.56 178.88 1108.42 179.28 1117.02 181.14C1125.62 182.99 1133.85 186.27 1141.37 190.85C1148.89 195.42 1155.59 201.23 1161.19 208.02C1165.38 212.85 1169.11 218.06 1172.33 223.58C1175.55 229.1 1178.26 234.91 1180.4 240.94C1182.55 246.96 1184.12 253.17 1185.12 259.49C1186.11 265.8 1186.52 272.2 1186.32 278.59C1186.39 285.12 1185.87 291.63 1184.77 298.06C1183.68 304.49 1182.01 310.81 1179.79 316.95C1177.56 323.08 1174.8 329 1171.52 334.64C1168.25 340.28 1164.48 345.62 1160.25 350.59C1156.31 355.2 1151.89 359.38 1147.04 363.03C1142.2 366.69 1136.97 369.8 1131.45 372.32C1125.93 374.84 1120.16 376.74 1114.22 378.01C1108.29 379.27 1102.24 379.88 1096.17 379.82C1090.47 379.98 1084.77 379.41 1079.21 378.13C1073.65 376.86 1068.28 374.88 1063.22 372.25C1058.15 369.62 1053.45 366.36 1049.2 362.55C1044.96 358.73 1041.21 354.4 1038.06 349.64L1036.49 374.32L990.63 374.79L990.63 106.94ZM1087.22 334.87C1096.17 334.87 1104.18 332.35 1111.72 327.79C1118.63 322.76 1124.28 316.16 1128.68 308.14C1132.77 300.13 1134.65 290.54 1134.65 279.85C1134.65 269.32 1132.77 259.73 1128.68 251.71C1127.66 249.79 1126.52 247.92 1125.29 246.12C1124.05 244.32 1122.72 242.59 1121.3 240.94C1119.87 239.29 1118.35 237.72 1116.75 236.24C1115.15 234.76 1113.47 233.36 1111.72 232.07C1108.06 229.78 1104.1 228.03 1099.96 226.84C1095.82 225.65 1091.53 225.05 1087.22 225.05C1082.91 225.05 1078.62 225.65 1074.48 226.84C1070.33 228.03 1066.38 229.78 1062.72 232.07C1055.65 237.1 1050.15 243.7 1045.6 251.71C1044.56 253.92 1043.66 256.17 1042.89 258.48C1042.11 260.79 1041.47 263.13 1040.97 265.51C1040.47 267.89 1040.11 270.3 1039.88 272.72C1039.66 275.14 1039.57 277.58 1039.63 280.01C1039.33 284.63 1039.62 289.27 1040.5 293.82C1041.39 298.37 1042.86 302.78 1044.87 306.95C1046.89 311.12 1049.43 315.01 1052.44 318.53C1055.45 322.05 1058.91 325.16 1062.72 327.79C1070.1 332.35 1078.11 334.87 1087.22 334.87ZM1205.17 184.75L1251.19 184.75L1252.76 209.43C1255.64 204.72 1259.13 200.42 1263.14 196.63C1267.16 192.84 1271.65 189.61 1276.52 187.01C1281.39 184.41 1286.58 182.47 1291.95 181.24C1297.33 180.01 1302.85 179.5 1308.36 179.72C1314.65 179.61 1320.93 180.43 1326.99 182.14C1333.05 183.86 1338.83 186.45 1344.13 189.85C1349.44 193.24 1354.22 197.39 1358.32 202.17C1362.43 206.96 1365.81 212.31 1368.35 218.08C1373.85 230.02 1376.84 244.8 1376.84 261.3L1376.84 375.11L1326.73 375.11L1326.73 267.9C1326.73 254.7 1323.75 244.33 1317.78 236.62C1311.81 229.08 1303.65 224.99 1293.28 224.99C1285.74 224.99 1279.14 226.56 1273.33 230.02C1267.84 233.64 1263.28 238.2 1259.83 244.64C1258.96 246.26 1258.2 247.94 1257.54 249.65C1256.89 251.37 1256.35 253.13 1255.93 254.92C1255.5 256.71 1255.2 258.53 1255.01 260.35C1254.82 262.18 1254.75 264.02 1254.8 265.86L1254.8 374.63L1205.17 374.63L1205.17 184.75ZM1401.81 106.79L1451.91 106.79L1451.91 208.96C1455.29 204.39 1459.19 200.23 1463.53 196.56C1467.87 192.9 1472.63 189.75 1477.69 187.18C1482.76 184.61 1488.11 182.63 1493.63 181.3C1499.15 179.97 1504.81 179.28 1510.49 179.25C1516.39 179.16 1522.28 179.74 1528.05 180.97C1533.82 182.2 1539.44 184.07 1544.79 186.55C1550.14 189.03 1555.2 192.11 1559.87 195.72C1564.53 199.33 1568.78 203.46 1572.53 208.02C1576.69 212.85 1580.39 218.05 1583.59 223.57C1586.79 229.08 1589.47 234.88 1591.6 240.89C1593.73 246.9 1595.3 253.09 1596.29 259.39C1597.28 265.69 1597.69 272.06 1597.5 278.44C1597.57 284.96 1597.05 291.48 1595.96 297.91C1594.87 304.34 1593.2 310.66 1590.98 316.79C1588.75 322.93 1585.99 328.85 1582.71 334.49C1579.43 340.13 1575.66 345.46 1571.43 350.43C1567.49 355.05 1563.07 359.22 1558.22 362.88C1553.38 366.53 1548.15 369.64 1542.63 372.16C1537.11 374.68 1531.34 376.59 1525.4 377.85C1519.47 379.11 1513.42 379.72 1507.35 379.66C1501.65 379.82 1495.95 379.25 1490.39 377.98C1484.83 376.7 1479.46 374.72 1474.4 372.09C1469.33 369.46 1464.63 366.2 1460.38 362.39C1456.14 358.58 1452.39 354.24 1449.24 349.48L1447.83 374.16L1401.81 374.63L1401.81 106.79ZM1498.87 334.87C1507.98 334.87 1515.99 332.35 1523.37 327.79C1530.44 322.76 1535.94 316.16 1540.49 308.14C1544.42 300.13 1546.46 290.54 1546.46 279.85C1546.76 275.23 1546.47 270.59 1545.59 266.04C1544.7 261.49 1543.23 257.08 1541.22 252.91C1539.2 248.74 1536.66 244.84 1533.65 241.33C1530.63 237.81 1527.18 234.7 1523.37 232.07C1519.71 229.78 1515.76 228.03 1511.61 226.84C1507.47 225.65 1503.18 225.05 1498.87 225.05C1494.56 225.05 1490.27 225.65 1486.13 226.84C1481.98 228.03 1478.03 229.78 1474.37 232.07C1467.46 237.1 1461.8 243.7 1457.41 251.71C1456.32 253.89 1455.37 256.14 1454.56 258.44C1453.76 260.74 1453.1 263.09 1452.6 265.48C1452.1 267.86 1451.75 270.28 1451.55 272.7C1451.36 275.13 1451.32 277.57 1451.44 280.01C1451.13 284.63 1451.43 289.27 1452.31 293.82C1453.2 298.37 1454.66 302.78 1456.68 306.95C1458.69 311.12 1461.24 315.01 1464.25 318.53C1467.26 322.05 1470.72 325.16 1474.53 327.79C1481.91 332.35 1489.45 334.87 1498.87 334.87Z" />
</svg>